<?xml version="1.0" encoding="utf-8"?>
<!-- Generator: Adobe Illustrator 19.0.1, SVG Export Plug-In . SVG Version: 6.00 Build 0)  -->
<svg version="1.1" id="Layer_1" xmlns="http://www.w3.org/2000/svg" xmlns:xlink="http://www.w3.org/1999/xlink" x="0px" y="0px"
   viewBox="-489 -16 20 32" style="enable-background:new -489 -16 20 32;" xml:space="preserve">
<style type="text/css">
  .st0{fill:#F84E57;stroke:#D0343A;stroke-miterlimit:10;}
</style>
<title>Marker</title>
<path class="st0" d="M-471.4-10.9c-0.7-1.2-1.7-2.1-3-2.8c-1.8-1-3.9-1.5-6-1.1c-2.5,0.4-4.8,1.8-6.2,4c-0.9,1.3-1.4,2.8-1.3,4.4
  c0,1.6,0.4,3.1,1.3,4.5l1.1,1.9c1.2,1.8,2.3,3.4,3.4,5.3c1.5,2.6,2.6,5.4,3.2,8.4c1-4.9,3.1-8.5,5.5-11.8c0.7-1.1,1.5-2.4,2.1-3.6
  c0.4-0.6,0.7-1.3,0.9-2c0.3-0.8,0.4-1.7,0.4-2.6C-470.1-8.1-470.5-9.6-471.4-10.9z M-479-4.5c-1.7,0-3.1-1.4-3.1-3.1
  c0.2-1.7,1.7-3,3.5-2.8c1.5,0.2,2.6,1.3,2.8,2.8C-475.9-5.9-477.3-4.5-479-4.5z"/>
</svg>
